<?xml version="1.0" encoding="utf-8"?>
<!-- Generator: Adobe Illustrator 25.4.1, SVG Export Plug-In . SVG Version: 6.00 Build 0)  -->
<svg version="1.1" id="Capa_1" xmlns="http://www.w3.org/2000/svg" xmlns:xlink="http://www.w3.org/1999/xlink" x="0px" y="0px"
	 viewBox="0 0 344.28 428.14" style="enable-background:new 0 0 344.28 428.14;" xml:space="preserve">
<style type="text/css">
	.st0{fill:#FFFFFF;}
	.st1{opacity:0.6;fill:#FBC209;}
	.st2{fill:#FBC209;}
	.st3{fill:#9B9C9C;}
	.st4{fill:url(#);}
	.st5{fill:#CD1638;}
	.st6{fill:#FFFFFF;stroke:#000000;stroke-miterlimit:10;}
	.st7{fill:#FDE79D;}
</style>
<g>
	<path class="st0" d="M344.11,94.39c-0.01-4.03-1.63-8.55-3.81-12.01c-17.13-27.25-59.72-27.23-77,0c-1.8,2.83-2.77,6.57-2.96,9.95
		c-0.43,7.78-0.14,15.6-0.14,23.41c-10.83-13.17-22.5-23.94-36.81-31.91c-30.03-16.73-62.23-18.59-95.16-13.28
		c-50.87,8.21-90,33.48-112.22,81.13C-1.41,189.03-3,228.5,3.57,268.51c5.38,32.81,18.46,62.11,43.39,84.88
		c37.23,34.01,82.02,44.81,130.7,37.69c37.48-5.48,67.61-23.15,85.8-59.06c13.86-27.35,56.26-28.85,74.86-4.28
		c1.6,2.11,3.13,4.27,5.95,8.11c0-3.57,0-4.99,0-6.42C344.27,251.08,344.33,172.73,344.11,94.39z M191.4,320.19
		C124.5,335.51,71.39,288.24,77.43,218.92c7.13-81.84,93.14-98.31,139.22-69.19c25.81,16.31,40.74,45.55,40.73,80.33
		C257.38,275.06,230.98,311.12,191.4,320.19z"/>
	<path class="st0" d="M183.77,48.55c3.53-0.14,7.53-1.48,10.37-3.56c18.1-13.27,35.93-26.91,53.89-40.38
		c1.48-1.11,3.19-1.93,4.8-2.88c-25.92-1.77-50.39-1.83-74.86-1.66c-1.66,0.01-4.08,1.23-4.83,2.6
		c-8.03,14.71-15.8,29.57-24.52,46.05C161.47,48.71,172.64,49,183.77,48.55z"/>
	<path class="st0" d="M282.37,396.64c6.18,10.29,12.45,20.71,18.71,31.12c1.02,0.13,2.04,0.25,3.06,0.38
		c6.08-10.29,12.17-20.58,18.18-30.75C308.77,387.64,292.97,387.47,282.37,396.64z"/>
</g>
</svg>
